<svg width="22" height="22" viewBox="0 0 22 22" fill="none" xmlns="http://www.w3.org/2000/svg">
<g clip-path="url(#clip0_325_81)">
<path d="M3.41856 20.5839L3.79764 19.8399L3.41856 20.5839ZM1.41557 18.5809L2.15956 18.2018L1.41557 18.5809ZM16.9165 18.5809L16.1725 18.2018L16.9165 18.5809ZM14.9135 20.5839L14.5344 19.8399L14.9135 20.5839ZM14.9135 5.08297L14.5344 5.82696L14.9135 5.08297ZM16.9165 7.08596L16.1725 7.46504L16.9165 7.08596ZM3.41856 5.08297L3.79764 5.82696L3.41856 5.08297ZM1.41557 7.08596L2.15956 7.46504L1.41557 7.08596ZM17.416 16.5817C16.9549 16.5817 16.581 16.9556 16.581 17.4167C16.581 17.8779 16.9549 18.2517 17.416 18.2517V16.5817ZM3.74768 4.58342C3.74768 5.04457 4.12152 5.41842 4.58268 5.41842C5.04384 5.41842 5.41768 5.04457 5.41768 4.58342H3.74768ZM4.92195 14.9802C4.58882 15.2991 4.57727 15.8277 4.89616 16.1608C5.21505 16.4939 5.74362 16.5055 6.07675 16.1866L4.92195 14.9802ZM12.2553 16.1866C12.5884 16.5055 13.117 16.4939 13.4359 16.1608C13.7548 15.8277 13.7432 15.2991 13.4101 14.9802L12.2553 16.1866ZM8.24935 5.41842H10.0827V3.74841H8.24935V5.41842ZM16.581 11.9167V13.7501H18.251V11.9167H16.581ZM10.0827 20.2484H8.24935V21.9184H10.0827V20.2484ZM1.75102 13.7501V11.9167H0.0810156V13.7501H1.75102ZM8.24935 20.2484C6.95212 20.2484 6.02941 20.2478 5.30702 20.1887C4.59438 20.1305 4.15053 20.0197 3.79764 19.8399L3.03948 21.3279C3.66702 21.6476 4.35511 21.7865 5.17103 21.8532C5.9772 21.9191 6.97967 21.9184 8.24935 21.9184V20.2484ZM0.0810156 13.7501C0.0810156 15.0198 0.0803663 16.0222 0.146233 16.8284C0.212896 17.6443 0.351828 18.3324 0.671579 18.96L2.15956 18.2018C1.97976 17.8489 1.86891 17.4051 1.81069 16.6924C1.75166 15.97 1.75102 15.0473 1.75102 13.7501H0.0810156ZM3.79764 19.8399C3.09235 19.4805 2.51892 18.9071 2.15956 18.2018L0.671579 18.96C1.19105 19.9795 2.01995 20.8084 3.03948 21.3279L3.79764 19.8399ZM16.581 13.7501C16.581 15.0473 16.5804 15.97 16.5213 16.6924C16.4631 17.4051 16.3523 17.8489 16.1725 18.2018L17.6605 18.96C17.9802 18.3324 18.1191 17.6443 18.1858 16.8284C18.2517 16.0222 18.251 15.0198 18.251 13.7501H16.581ZM10.0827 21.9184C11.3524 21.9184 12.3548 21.9191 13.161 21.8532C13.9769 21.7865 14.665 21.6476 15.2926 21.3279L14.5344 19.8399C14.1815 20.0197 13.7377 20.1305 13.025 20.1887C12.3026 20.2478 11.3799 20.2484 10.0827 20.2484V21.9184ZM16.1725 18.2018C15.8131 18.9071 15.2397 19.4805 14.5344 19.8399L15.2926 21.3279C16.3121 20.8084 17.141 19.9795 17.6605 18.96L16.1725 18.2018ZM10.0827 5.41842C11.3799 5.41842 12.3026 5.41906 13.025 5.47809C13.7377 5.53631 14.1815 5.64716 14.5344 5.82696L15.2926 4.33898C14.665 4.01923 13.9769 3.8803 13.161 3.81363C12.3548 3.74777 11.3524 3.74841 10.0827 3.74841V5.41842ZM18.251 11.9167C18.251 10.6471 18.2517 9.6446 18.1858 8.83843C18.1191 8.02251 17.9802 7.33442 17.6605 6.70688L16.1725 7.46504C16.3523 7.81792 16.4631 8.26178 16.5213 8.97442C16.5804 9.69681 16.581 10.6195 16.581 11.9167H18.251ZM14.5344 5.82696C15.2397 6.18632 15.8131 6.75975 16.1725 7.46504L17.6605 6.70688C17.141 5.68735 16.3121 4.85845 15.2926 4.33898L14.5344 5.82696ZM8.24935 3.74841C6.97967 3.74841 5.9772 3.74777 5.17103 3.81363C4.35511 3.8803 3.66702 4.01923 3.03948 4.33898L3.79764 5.82696C4.15053 5.64716 4.59438 5.53631 5.30702 5.47809C6.02941 5.41906 6.95212 5.41842 8.24935 5.41842V3.74841ZM1.75102 11.9167C1.75102 10.6195 1.75166 9.69681 1.81069 8.97442C1.86891 8.26178 1.97976 7.81792 2.15956 7.46504L0.671579 6.70688C0.351828 7.33442 0.212896 8.02251 0.146233 8.83843C0.0803663 9.6446 0.0810156 10.6471 0.0810156 11.9167H1.75102ZM3.03948 4.33898C2.01995 4.85845 1.19105 5.68735 0.671579 6.70688L2.15956 7.46504C2.51892 6.75975 3.09235 6.18632 3.79764 5.82696L3.03948 4.33898ZM8.24935 1.75175H16.4994V0.0817481H8.24935V1.75175ZM20.2477 5.50008V13.7501H21.9177V5.50008H20.2477ZM20.2477 13.7501C20.2477 15.314 18.9799 16.5817 17.416 16.5817V18.2517C19.9022 18.2517 21.9177 16.2363 21.9177 13.7501H20.2477ZM16.4994 1.75175C18.5695 1.75175 20.2477 3.42993 20.2477 5.50008H21.9177C21.9177 2.50762 19.4918 0.0817481 16.4994 0.0817481V1.75175ZM8.24935 0.0817481C5.76315 0.0817481 3.74768 2.09721 3.74768 4.58342H5.41768C5.41768 3.01953 6.68546 1.75175 8.24935 1.75175V0.0817481ZM6.07675 16.1866C7.77891 14.5572 10.5531 14.5572 12.2553 16.1866L13.4101 14.9802C11.0622 12.7327 7.26988 12.7327 4.92195 14.9802L6.07675 16.1866ZM10.7904 11.4922C10.7904 12.2814 10.1114 12.9827 9.1961 12.9827V14.6527C10.9642 14.6527 12.4604 13.2717 12.4604 11.4922H10.7904ZM9.1961 12.9827C8.28082 12.9827 7.60177 12.2814 7.60177 11.4922H5.93177C5.93177 13.2717 7.42801 14.6527 9.1961 14.6527V12.9827ZM7.60177 11.4922C7.60177 10.7031 8.28082 10.0017 9.1961 10.0017V8.33175C7.42801 8.33175 5.93177 9.71274 5.93177 11.4922H7.60177ZM9.1961 10.0017C10.1114 10.0017 10.7904 10.7031 10.7904 11.4922H12.4604C12.4604 9.71274 10.9642 8.33175 9.1961 8.33175V10.0017Z" fill="#5F6D7E"/>
</g>
<defs>
<clipPath id="clip0_325_81">
<rect width="22" height="22" fill="white"/>
</clipPath>
</defs>
</svg>
